Coordinates
version=1
nRows=5
nColumns=63
inDegrees=yes

Units are S.I. units (second, meters, Newtons, ...)
If the header above contains a line with 'inDegrees', this indicates whether rotational values are in degrees (yes) or radians (no).

endheader
time	pelvis_tilt	pelvis_list	pelvis_rotation	pelvis_tx	pelvis_ty	pelvis_tz	hip_flexion_r	hip_adduction_r	hip_rotation_r	knee_angle_r	knee_angle_r_beta	ankle_angle_r	subtalar_angle_r	mtp_angle_r	hip_flexion_l	hip_adduction_l	hip_rotation_l	knee_angle_l	knee_angle_l_beta	ankle_angle_l	subtalar_angle_l	mtp_angle_l	L5_S1_Flex_Ext	L5_S1_Lat_Bending	L5_S1_axial_rotation	L4_L5_Flex_Ext	L4_L5_Lat_Bending	L4_L5_axial_rotation	L3_L4_Flex_Ext	L3_L4_Lat_Bending	L3_L4_axial_rotation	L2_L3_Flex_Ext	L2_L3_Lat_Bending	L2_L3_axial_rotation	L1_L2_Flex_Ext	L1_L2_Lat_Bending	L1_L2_axial_rotation	L1_T12_Flex_Ext	L1_T12_Lat_Bending	L1_T12_axial_rotation	Abs_r3	Abs_r2	Abs_r1	Abs_t1	Abs_t2	neck_flexion	neck_bending	neck_rotation	arm_flex_r	arm_add_r	arm_rot_r	elbow_flex_r	pro_sup_r	wrist_flex_r	wrist_dev_r	arm_flex_l	arm_add_l	arm_rot_l	elbow_flex_l	pro_sup_l	wrist_flex_l	wrist_dev_l
      3.85714286	     -5.90938911	     -0.63228678	     82.95918790	      0.26442013	      0.83574884	      0.71871709	      2.61898365	     -2.10755477	     11.28108111	      5.16743290	      0.09018872	     31.52801015	     -5.66430502	      0.00000000	      3.60189567	      2.19474812	     -6.17826360	      8.73708906	      0.15249097	     35.10952881	      3.88492451	      0.00000000	     -0.04386142	      0.45750492	      1.22895789	     -0.08145505	      0.60848154	      1.30576776	     -0.07205993	      1.11237746	      1.30576776	     -0.05012922	      1.11237746	      1.07533815	     -0.04072972	      0.93294403	      0.99852829	     -0.02506242	      0.70867512	      0.92171842	     -0.31329775	      5.17538715	      6.83509510	      0.00000000	      0.00000000	     28.16068551	     10.35781390	      4.87516089	      1.25102147	    -15.33688524	    111.83435925	      7.31528236	      4.39669258	     -5.53754277	    -20.47270008	      0.29396568	    -17.87223125	     71.48349072	     27.04923138	     41.96879253	     -5.02186613	     -6.95312734
      3.87500000	     -5.75843455	     -0.72142814	     83.10733466	      0.26420504	      0.83564709	      0.71981113	      2.77381674	     -1.93136585	     11.34373128	      5.24093410	      0.09147156	     31.42640573	     -5.92104548	      0.00000000	      3.79303848	      1.91378587	     -7.52178984	      8.82981463	      0.15410934	     35.45130010	      5.82044168	      0.00000000	     -0.05119136	      0.47571858	      1.27432747	     -0.09506748	      0.63270571	      1.35397293	     -0.08410229	      1.15666216	      1.35397293	     -0.05850661	      1.15666216	      1.11503653	     -0.04753630	      0.97008533	      1.03539107	     -0.02925074	      0.73688808	      0.95574560	     -0.36565478	      5.38142372	      7.08742706	      0.00000000	      0.00000000	     28.14870430	     10.23869796	      4.50889420	      1.14460556	    -15.41546651	    110.89539331	      7.39272507	      4.34784459	     -5.29296214	    -20.41258793	      1.19982135	    -17.95447493	     74.77254914	     27.10459540	     38.30815221	     -4.61927356	     -7.45946260
      3.89285714	     -5.64314566	     -0.72989134	     83.34556342	      0.26370604	      0.83569263	      0.72080429	      2.88739699	     -1.88243622	      9.81657892	      5.41426821	      0.09449681	     31.80436650	     -4.12425880	      0.00000000	      3.80047083	      1.86903026	     -6.80886653	      8.64571753	      0.15089624	     35.29957072	      5.18061865	      0.00000000	     -0.07140287	      0.49017275	      1.27953948	     -0.13260227	      0.65192976	      1.35951070	     -0.11730778	      1.19180602	      1.35951070	     -0.08160634	      1.19180602	      1.11959704	     -0.06630471	      0.99956027	      1.03962583	     -0.04079960	      0.75927759	      0.95965461	     -0.51002357	      5.54493216	      7.11641471	      0.00000000	      0.00000000	     28.12963705	     10.48899845	      4.63582381	      1.11425117	    -15.54527266	    109.96560630	      7.57728122	      4.18747570	     -4.89134732	    -20.29588178	      1.72892668	    -17.97637308	     76.19093842	     27.18291967	     36.74560704	     -4.26501852	     -7.64542582
      3.91071429	     -5.55154288	     -0.79516335	     83.55181883	      0.26324179	      0.83559033	      0.72163928	      3.09914228	     -1.88691198	      7.54340963	      5.69045060	      0.09931710	     32.40407593	     -1.37899664	      0.00000000	      3.84161850	      1.82110595	     -6.29632926	      8.42737531	      0.14708545	     35.25024823	      4.83000244	      0.00000000	     -0.07902369	      0.50396442	      1.27341395	     -0.14675490	      0.67027268	      1.35300232	     -0.12982802	      1.22533909	      1.35300232	     -0.09031618	      1.22533909	      1.11423720	     -0.07338140	      1.02768425	      1.03464883	     -0.04515414	      0.78064089	      0.95506046	     -0.56445832	      5.70094632	      7.08234635	      0.00000000	      0.00000000	     28.10953142	     10.78026216	      5.04575560	      1.03341739	    -15.95177797	    105.62731903	      8.58677969	      6.79451822	     -5.46109450	    -20.28619637	      1.68278630	    -17.97769005	     74.84717491	     27.46450511	     37.97832055	     -4.25544825	     -6.90642656
      3.92857143	     -5.44663672	     -0.84475890	     83.78549760	      0.26270074	      0.83554903	      0.72240956	      3.22056881	     -1.83961041	      6.23467726	      5.87874397	      0.10260344	     32.60584314	     -0.09578674	      0.00000000	      3.88694857	      1.75628912	     -5.94369199	      8.28501017	      0.14460071	     35.18717402	      4.69155509	      0.00000000	     -0.08546703	      0.51965628	      1.27181134	     -0.15872082	      0.69114286	      1.35129955	     -0.14041378	      1.26349228	      1.35129955	     -0.09768027	      1.26349228	      1.11283492	     -0.07936468	      1.05968309	      1.03334671	     -0.04883586	      0.80494758	      0.95385851	     -0.61048243	      5.87845579	      7.07343313	      0.00000000	      0.00000000	     28.09708494	     11.04365091	      5.38667621	      0.94648308	    -16.21401707	    103.17777512	      9.07245033	      8.02861165	     -5.48157394	    -20.05304222	      1.81742634	    -17.94687362	     74.32475894	     27.54740117	     39.04418769	     -4.17352381	     -6.73571778
